# xmcd
#
# Track frame offsets: 
#        150
#        20452
#        41522
#
# Disc length: 784 seconds
#
# Revision: 4
# Processed by: cddbd v1.5.2PL0 Copyright (c) Steve Scherf et al.
# Submitted via: ExactAudioCopy v0.99pb3
#
DISCID=1a030e03
DTITLE=The FLARE - INNER CHILD
DYEAR=2004
DGENRE=Rock
TTITLE0=INNER CHILD
TTITLE1=LYRA
TTITLE2=FORGIVE
EXTD=
EXTT0=
EXTT1=
EXTT2=
PLAYORDER=
